# xmcd
#
# Track frame offsets:
#	150
#	9383
#	17105
#	22743
#	31000
#	36740
#	44518
#	58634
#	70354
#
# Disc length: 1050 seconds
#
# Revision: 1
# Processed by: cddbd v1.5.2PL0 Copyright (c) Steve Scherf et al.
# Submitted via: audiograbber 1.83.01
#
DISCID=6e041809
DTITLE=KIGA BGB - Kiddys amd The Kilts
DYEAR=2009
DGENRE=Children
TTITLE0=Ich bin so kribbel - krabbel fröhlich
TTITLE1=Höst due die Regenwürmer husten
TTITLE2=Ich schenk dir einen Regenbogen
TTITLE3=Hexe Wackelzahn
TTITLE4=Jahreszeitenlied
TTITLE5=Da hat das rote Pferd
TTITLE6=Heut ist so a schena Tag
TTITLE7=Halte zu mir guter GottTrack  8
TTITLE8=Auf Wiedersehen
EXTD=
EXTT0=
EXTT1=
EXTT2=
EXTT3=
EXTT4=
EXTT5=
EXTT6=
EXTT7=
EXTT8=
PLAYORDER=
